
<svg xmlns="http://www.w3.org/2000/svg" version="1.1" xmlns:xlink="http://www.w3.org/1999/xlink" preserveAspectRatio="none" x="0px" y="0px" width="400px" height="400px" viewBox="0 0 400 400">
<defs>
<g id="Layer0_0_FILL">
<path fill="#FFFFFF" stroke="none" d="
M 397.9 31.35
Q 397.899609375 19.3990234375 389.45 10.95 381.0537109375 2.553125 369.1 2.55
L 30.9 2.55
Q 18.95 2.555078125 10.5 10.95 2.105078125 19.4 2.1 31.35
L 2.1 369.55
Q 2.103125 381.5037109375 10.5 389.9 18.9490234375 398.349609375 30.9 398.35
L 369.1 398.35
Q 381.0546875 398.3515625 389.45 389.9 397.9015625 381.5046875 397.9 369.55
L 397.9 31.35
M 385.35 15.05
Q 392.1001953125 21.80078125 392.1 31.35
L 392.1 369.55
Q 392.0984375 379.0953125 385.35 385.8 378.6453125 392.5484375 369.1 392.55
L 30.9 392.55
Q 21.35078125 392.5501953125 14.6 385.8 7.8966796875 379.09609375 7.9 369.55
L 7.9 31.35
Q 7.8947265625 21.800390625 14.6 15.05 21.350390625 8.3447265625 30.9 8.35
L 369.1 8.35
Q 378.64609375 8.3466796875 385.35 15.05
M 345.45 209.1
Q 345.45 209 344.9 207.95 344.35 206.9 344.3 206.9 344.25 206.85 344.15 206.85 343.9 207.05 343.65 207.25 341.6 208.85 339.1 208.85 337.65 208.85 336.4 207.9 335.1 206.95 334.9 205.6 343.9 204.9 344.6 204.65 345.6 204.25 345.6 203.1 345.6 200.1 343.65 198 341.7 195.85 338.75 195.85 335.6 195.85 333.4 198.35 331.35 200.75 331.35 203.95 331.35 207.55 333.5 209.75 335.65 211.9 339.3 211.9 342.9 211.9 345.2 209.45 345.45 209.2 345.45 209.1
M 341.85 202.15
Q 341.85 202.35 340.95 202.45 337.75 202.95 335.4 202.95 334.85 202.95 334.85 202.6 334.85 201.15 336 200 337.1 198.85 338.55 198.85 339.8 198.85 340.85 199.85 341.85 200.85 341.85 202.15
M 330.65 196.85
Q 330.65 196.5 329.4 196.5 328.45 196.5 327.85 196.7 327.1 196.9 326.4 197.3 325.75 197.7 325.15 198.15 325.1 198.15 325.05 198.15 324.85 198.15 324.75 197.25 324.7 196.3 324.45 196.3
L 322.9 196.65
Q 321.85 196.75 321.25 196.8 321.05 196.9 321.05 197.1 321.05 197.15 321.1 197.25 321.8 199.6 321.8 203.45 321.8 204.75 321.75 207.3 321.75 209.85 321.75 211.1 321.75 211.5 322.1 211.5 322.55 211.5 323.55 211.5 324.55 211.55 325 211.55 325.4 211.55 325.4 211.1 325.4 210.25 325.3 208.45 325.25 206.65 325.25 205.8
L 325.25 204.1
Q 325.25 201.95 325.55 201.3 326.1 200.15 328.1 200.15 328.45 200.15 329.1 200.25 329.75 200.3 330.1 200.3 330.35 200.3 330.4 199.95 330.65 198.55 330.65 196.85
M 318.85 207.95
Q 318.3 206.9 318.25 206.9 318.2 206.85 318.1 206.85 317.85 207.05 317.6 207.25 315.55 208.85 313.05 208.85 311.6 208.85 310.35 207.9 309.05 206.95 308.85 205.6 317.85 204.9 318.55 204.65 319.55 204.25 319.55 203.1 319.55 200.1 317.6 198 315.65 195.85 312.7 195.85 309.55 195.85 307.35 198.35 305.3 200.75 305.3 203.95 305.3 207.55 307.45 209.75 309.6 211.9 313.25 211.9 316.85 211.9 319.15 209.45 319.4 209.2 319.4 209.1 319.4 209 318.85 207.95
M 315.8 202.15
Q 315.8 202.35 314.9 202.45 311.7 202.95 309.35 202.95 308.8 202.95 308.8 202.6 308.8 201.15 309.95 200 311.05 198.85 312.5 198.85 313.75 198.85 314.8 199.85 315.8 200.85 315.8 202.15
M 293.15 194
Q 293.25 191.05 293.25 189.6 293.25 189.3 293.05 189.3 292.75 189.3 292.1 189.4 291.45 189.5 291.1 189.5 289.6 189.5 289.35 189.6 289.15 189.65 289.15 189.95 289.15 190 289.2 190.2 289.4 193.85 289.45 195.7 289.65 201.7 289.65 203.55
L 289.65 211.1
Q 289.65 211.5 290 211.5 290.5 211.5 291.45 211.5 292.45 211.55 292.9 211.55 293.25 211.55 293.25 211.1
L 293.25 201.8
Q 293.25 201.05 294.7 200.1 296.1 199.25 296.95 199.25 299.65 199.25 299.65 202.05 299.65 202.8 299.7 204.25 299.75 205.7 299.75 206.45 299.75 207.2 299.7 208.7 299.65 210.25 299.65 211 299.65 211.5 300 211.5 300.5 211.5 301.5 211.5 302.45 211.55 302.95 211.55 303.3 211.55 303.3 210.95 303.3 209.95 303.25 208 303.2 206 303.2 205 303.2 204.5 303.25 203.5 303.25 202.5 303.25 202 303.25 199.25 302.45 197.95 301.35 196.2 298.45 196.2 296.7 196.2 295.2 197.15 293.95 198.1 293.15 198.8 293 198.75 293 198.4 293 196.95 293.15 194
M 278.2 206.9
Q 278.15 206.85 278.05 206.85 277.8 207.05 277.55 207.25 275.5 208.85 273 208.85 271.55 208.85 270.3 207.9 269 206.95 268.8 205.6 277.8 204.9 278.5 204.65 279.5 204.25 279.5 203.1 279.5 200.1 277.55 198 275.6 195.85 272.65 195.85 269.5 195.85 267.3 198.35 265.25 200.75 265.25 203.95 265.25 207.55 267.4 209.75 269.55 211.9 273.2 211.9 276.8 211.9 279.1 209.45 279.35 209.2 279.35 209.1 279.35 209 278.8 207.95 278.25 206.9 278.2 206.9
M 275.75 202.15
Q 275.75 202.35 274.85 202.45 271.65 202.95 269.3 202.95 268.75 202.95 268.75 202.6 268.75 201.15 269.9 200 271 198.85 272.45 198.85 273.7 198.85 274.75 199.85 275.75 200.85 275.75 202.15
M 259.6 196.85
Q 259.6 197.05 259.65 197.5 259.65 197.95 259.65 198.15 259.65 198.4 259.55 198.4 259.4 198.4 259.15 198.1 257.65 196.1 255.1 196.1 252.15 196.1 250.35 198.35 248.6 200.4 248.6 203.4 248.6 206.3 250.4 208.3 252.25 210.4 255.15 210.4 257.8 210.4 259.55 208.25 259.6 209.4 259.6 209.75 259.6 211.2 258.45 212 257.4 212.7 255.9 212.7 253.5 212.7 251.15 211.35 251.05 211.25 250.95 211.25 250.8 211.25 250.75 211.55 250.3 214 250.3 213.85 250.3 214 250.65 214.2 252.8 215.55 256.35 215.55 260.05 215.55 261.7 213.7 263.3 211.9 263.3 208.2 263.3 206.35 263.35 202.6 263.35 198.8 263.35 196.95 263.35 196.6 263.15 196.55 263 196.45 261.45 196.2 259.95 195.9 259.8 195.9 259.6 195.9 259.6 196.85
M 258.65 200.4
Q 259.6 201.65 259.6 203.4 259.6 205.1 258.65 206.3 257.55 207.65 255.9 207.65 254.25 207.65 253.2 206.3 252.2 205.1 252.2 203.4 252.2 201.65 253.15 200.4 254.2 199.1 255.9 199.1 257.6 199.1 258.65 200.4
M 242.55 197.65
Q 240.75 196 238.4 196 235 196 232.9 198.35 230.9 200.6 230.9 204.1 230.9 207.15 232.9 209.45 234.95 211.9 238 211.9 239.25 211.9 240.45 211.25 241.25 210.9 242.2 210.15 242.95 209.5 243.05 209.5 243.15 209.5 243.35 210.6 243.5 211.7 243.8 211.7 244.2 211.7 245.1 211.6 245.95 211.5 246.4 211.5 246.8 211.5 246.8 211.05
L 246.75 210.85
Q 246.4 203.95 246.4 203.8 246.4 201.2 247 197.65 247.05 197.4 247.05 197.35 247.05 197.15 245.75 196.85 244.6 196.65 244.15 196.65 243.9 196.65 243.75 197.6 243.55 198.6 243.45 198.6 243.4 198.6 243.4 198.55 242.8 197.95 242.55 197.65
M 241.9 207.15
Q 240.65 208.65 238.85 208.65 236.95 208.65 235.7 207.15 234.5 205.8 234.5 203.9 234.5 202 235.7 200.6 236.95 199.1 238.85 199.1 240.7 199.1 241.9 200.6 243.05 201.95 243.05 203.9 243.05 205.75 241.9 207.15
M 204.5 197.45
Q 204.5 197.55 204.55 197.75 205.15 200.6 205.15 203.45 205.15 204.75 205.1 207.3 205.1 209.8 205.1 211.1 205.1 211.5 205.4 211.5
L 208.3 211.5
Q 208.7 211.5 208.7 211.05 208.7 210.3 208.65 208.75 208.65 207.2 208.65 206.4
L 208.65 201.85
Q 208.65 200.9 210.15 200 211.5 199.2 212.5 199.2 214.15 199.2 214.75 200.25 215.2 201 215.2 202.75
L 215.2 206.55
Q 215.2 207.3 215.15 208.8 215.1 210.3 215.1 211.05 215.1 211.5 215.4 211.5 215.65 211.5 216.15 211.45 216.6 211.45 216.85 211.45 217.15 211.45 217.7 211.5 218.25 211.55 218.5 211.55 218.8 211.55 218.8 211.1 218.8 210.35 218.75 208.8 218.65 207.3 218.65 206.5 218.65 203.3 218.75 202.05 218.8 201.1 220.05 200.15 221.3 199.2 222.3 199.2 223.85 199.2 224.45 199.85 225 200.45 225.1 202.05 225.15 202.5 225.15 206.45 225.15 207.2 225.1 208.65 225.05 210.05 225.05 210.75 225.05 211.5 225.35 211.5 225.6 211.5 226.15 211.45 226.7 211.45 226.95 211.45 227.2 211.45 227.7 211.5 228.15 211.55 228.4 211.55 228.75 211.55 228.75 210.9 228.75 209.95 228.7 207.95 228.65 206 228.65 205 228.65 204.5 228.7 203.4 228.7 202.35 228.7 201.8 228.7 199.1 227.9 197.85 226.8 196.15 223.9 196.15 222.4 196.15 220.9 197.05 219.45 197.85 218.5 199.1 217.5 196.15 213.9 196.15 212.55 196.15 211.25 196.85 210.3 197.35 209.4 198.15
L 208.6 198.8
Q 208.5 198.8 208.35 197.7 208.15 196.6 208 196.6
L 207.85 196.65
Q 206.8 196.8 206.3 196.95 205.2 197.15 204.6 197.2 204.5 197.25 204.5 197.45
M 159.45 203.9
Q 159.45 200.65 157.3 198.35 155.1 196 151.9 196 148.65 196 146.45 198.35 144.3 200.65 144.3 203.9 144.3 207.2 146.45 209.5 148.65 211.85 151.9 211.85 155.1 211.85 157.3 209.45 159.45 207.15 159.45 203.9
M 156.15 203.9
Q 156.15 205.8 155 207.15 153.75 208.65 151.9 208.65 150.05 208.65 148.8 207.15 147.6 205.8 147.6 203.9 147.6 202 148.8 200.65 150 199.25 151.9 199.25 153.75 199.25 155 200.65 156.15 202 156.15 203.9
M 198.1 196.75
Q 197.8 196.75 197.8 197 197.8 198.25 198 200.65 198.15 203.1 198.15 204.35 198.15 205.4 198.1 207.6 198.05 209.75 198.05 210.85 198.05 211.45 198.35 211.45
L 201.4 211.45
Q 201.7 211.45 201.7 211.15 201.7 210 201.65 207.75 201.6 205.45 201.6 204.35 201.6 203.1 201.75 200.7 201.9 198.25 201.9 197.05 201.9 196.75 201.65 196.75 201.35 196.75 200.75 196.85 200.15 196.9 199.85 196.9 199.55 196.9 199 196.85 198.4 196.75 198.1 196.75
M 199.85 190.85
Q 199 190.85 198.35 191.4 197.7 191.95 197.7 192.8 197.7 194.75 199.85 194.75 202 194.75 202 192.8 202 191.95 201.4 191.4 200.75 190.85 199.85 190.85
M 178.65 197.1
Q 178.65 197.15 178.7 197.25 179.4 199.6 179.4 203.45 179.4 204.75 179.35 207.3 179.35 209.85 179.35 211.1 179.35 211.5 179.7 211.5 180.15 211.5 181.15 211.5 182.15 211.55 182.6 211.55 183 211.55 183 211.1 183 210.25 182.9 208.45 182.85 206.65 182.85 205.8
L 182.85 204.1
Q 182.85 201.95 183.15 201.3 183.7 200.15 185.7 200.15 186.05 200.15 186.7 200.25 187.35 200.3 187.7 200.3 187.95 200.3 188 199.95 188.25 198.55 188.25 196.85 188.25 196.5 187 196.5 186.05 196.5 185.45 196.7 184.7 196.9 184 197.3 183.35 197.7 182.75 198.15 182.7 198.15 182.65 198.15 182.45 198.15 182.35 197.25 182.3 196.3 182.05 196.3
L 180.5 196.65
Q 179.45 196.75 178.85 196.8 178.65 196.9 178.65 197.1
M 162.65 196.75
Q 162.25 196.75 162.15 197.35 161.55 199.9 161.55 203.5 161.55 207.5 162.25 209.05 163.35 211.55 166.8 211.55 169.35 211.55 171.95 209.3 172.1 209.15 172.2 209.15 172.35 209.15 172.4 210.35 172.4 211.5 172.6 211.5 175.65 211.5 175.75 211.45 176.05 211.4 176.05 211.05 176.05 209.9 176 207.65 175.95 205.4 175.95 204.25 175.95 203.1 176 200.8 176.1 198.45 176.1 197.35 176.1 196.8 175.65 196.8
L 173.1 196.8
Q 172.45 196.8 172.45 197.55 172.45 204.65 172.35 205.8 172.3 206.75 170.9 207.75 169.55 208.7 168.55 208.7 166.25 208.7 165.6 207.05 165.2 206.1 165.2 203.35 165.2 202.25 165.25 201.3 165.25 200.65 165.45 199.15 165.7 197.75 165.7 197.15 165.7 196.8 165.35 196.8 164.9 196.8 164 196.75 163.1 196.75 162.65 196.75
M 142.75 196.85
Q 142.25 196.85 141.25 196.9 140.2 196.95 139.7 196.95 139.45 196.95 139.45 197.35 139.45 197.8 139.55 198.7 139.65 199.55 139.65 200 139.65 202.1 139.55 202.85 139.45 203.4 138 205.75 136.6 208.05 136.35 208.05 135.95 208.05 134.35 205.7 132.75 203.35 132.65 202.75 132.5 201.8 132.5 199.9 132.5 199.45 132.55 198.6 132.6 197.7 132.6 197.25 132.6 196.95 132.35 196.95 131.85 196.95 130.9 196.9 129.9 196.8 129.4 196.8 129.05 196.8 129.05 197.15 129.05 197.75 129 198.95 129 200.15 129 200.75 129 203.15 129.2 203.8 129.5 204.65 131.9 207.65 134.15 210.55 134.15 210.95 134.15 211.3 133.6 212.2 133 213.1 132.75 213.25 131.9 213.75 130.15 213.75 129.35 213.75 129.35 214.1 129.35 214.3 129.75 215.35 130.15 216.4 130.3 216.5 130.4 216.6 130.8 216.6 134.2 216.6 134.85 216 135.5 215.4 139.2 209.95 142.85 204.5 143.05 203.8 143.2 203.25 143.2 200.65 143.2 196.85 142.75 196.85
M 107.5 197.05
Q 107.45 196.1 107.15 196.1 107 196.1 105.45 196.4 104.3 196.55 103.7 196.55 103.55 196.6 103.55 196.8 103.55 196.85 103.6 197.05 104.05 200.25 104.05 203.9 104.05 205.9 104.05 209.9 104 213.9 104 215.9 104 216.3 104.35 216.35 104.8 216.4 107.2 216.4 107.55 216.4 107.55 215.9
L 107.55 211.5
Q 107.55 209.85 107.6 209.75 107.6 209.55 107.7 209.5 108.35 210.1 109.05 210.7 110.5 211.9 112.4 211.9 115.55 211.9 117.6 209.45 119.6 207.15 119.6 204 119.6 200.85 117.55 198.5 115.45 196.1 112.35 196.1 110.1 196.1 107.95 198.3 107.8 198.45 107.7 198.55 107.6 198.4 107.6 198.3 107.55 197.65 107.5 197.05
M 114.8 200.65
Q 115.95 202.05 115.95 203.9 115.95 205.75 114.85 207.2 113.6 208.8 111.85 208.8 110 208.8 108.8 207.25 107.7 205.85 107.7 203.95 107.7 202.1 108.75 200.65 109.9 199.1 111.7 199.1 113.55 199.1 114.8 200.65
M 88.8 198.35
Q 86.65 200.65 86.65 203.9 86.65 207.2 88.8 209.5 91 211.85 94.25 211.85 97.45 211.85 99.65 209.45 101.8 207.15 101.8 203.9 101.8 200.65 99.65 198.35 97.45 196 94.25 196 91 196 88.8 198.35
M 98.5 203.9
Q 98.5 205.8 97.35 207.15 96.1 208.65 94.25 208.65 92.4 208.65 91.15 207.15 89.95 205.8 89.95 203.9 89.95 202 91.15 200.65 92.35 199.25 94.25 199.25 96.1 199.25 97.35 200.65 98.5 202 98.5 203.9
M 80.05 197.25
Q 80 196.3 79.75 196.3
L 78.2 196.65
Q 77.15 196.75 76.55 196.8 76.35 196.9 76.35 197.1 76.35 197.15 76.4 197.25 77.1 199.6 77.1 203.45 77.1 204.75 77.05 207.3 77.05 209.85 77.05 211.1 77.05 211.5 77.4 211.5 77.85 211.5 78.85 211.5 79.85 211.55 80.3 211.55 80.7 211.55 80.7 211.1 80.7 210.25 80.6 208.45 80.55 206.65 80.55 205.8
L 80.55 204.1
Q 80.55 201.95 80.85 201.3 81.4 200.15 83.4 200.15 83.75 200.15 84.4 200.25 85.05 200.3 85.4 200.3 85.65 200.3 85.7 199.95 85.95 198.55 85.95 196.85 85.95 196.5 84.7 196.5 83.75 196.5 83.15 196.7 82.4 196.9 81.7 197.3 81.05 197.7 80.45 198.15 80.4 198.15 80.35 198.15 80.15 198.15 80.05 197.25
M 55.35 189.9
Q 55.35 191.7 55.5 195.35 55.6 199 55.6 200.8 55.6 202.55 55.5 205.95 55.35 209.4 55.35 211.1 55.35 211.5 55.75 211.5 56.45 211.5 57.95 211.45 59.4 211.4 60.15 211.4 60.95 211.4 62.6 211.45 64.25 211.5 65.05 211.5 69.3 211.5 72 208 74.5 204.8 74.5 200.4 74.5 197.9 73.55 195.6 72.5 193.1 70.55 191.65 67.9 189.6 62.5 189.6 61.95 189.6 60.85 189.6 59.75 189.6 59.2 189.6 58.65 189.6 57.5 189.6 56.35 189.6 55.75 189.6 55.35 189.6 55.35 189.9
M 59.3 196.95
Q 59.35 194.55 59.35 193.35 59.35 192.8 61.2 192.7
L 63.4 192.7
Q 66.75 192.7 68.75 194.9 70.7 197.05 70.7 200.4 70.7 203.9 68.75 206.25 67.7 207.5 66.35 208 65.3 208.35 63.5 208.35 61 208.35 61.25 208.4 59.35 208.3 59.35 207.7 59.35 206.5 59.3 204.15 59.25 201.75 59.25 200.55 59.25 199.35 59.3 196.95 Z"/>
</g>
</defs>

<g transform="matrix( 1, 0, 0, 1, 0,0) ">
<use xlink:href="#Layer0_0_FILL"/>
</g>
</svg>
