
<svg xmlns="http://www.w3.org/2000/svg" version="1.1" xmlns:xlink="http://www.w3.org/1999/xlink" preserveAspectRatio="none" x="0px" y="0px" width="32px" height="32px" viewBox="0 0 32 32">
<defs>
<g id="Layer0_0_FILL">
<path fill="#FFFFFF" stroke="none" d="
M 31.25 11.95
Q 31.25 11.6 31 11.3 30.75 11.05 30.35 11.05 30 11.05 29.75 11.3
L 26.3 14.75 22.9 11.3
Q 22.65 11.05 22.25 11.05 21.9 11.05 21.65 11.3 21.35 11.6 21.35 11.95 21.35 12.3 21.65 12.6
L 25.05 16 21.65 19.4
Q 21.35 19.7 21.35 20.05 21.35 20.4 21.65 20.7 21.9 20.95 22.25 20.95 22.65 20.95 22.9 20.7
L 26.3 17.25 29.75 20.7
Q 30 20.95 30.35 20.95 30.75 20.95 31 20.7 31.25 20.4 31.25 20.05 31.25 19.7 31 19.4
L 27.6 16 31 12.6
Q 31.25 12.3 31.25 11.95
M 20.4 1.6
Q 20.4 1.4 20.3 1.25 20.15 1.1 19.95 1.1 19.75 1.1 19.6 1.2
L 6.45 11.45 0.6 11.45
Q 0.4 11.45 0.25 11.6 0.1 11.75 0.1 11.95
L 0.1 20.05
Q 0.1 20.25 0.25 20.4 0.4 20.55 0.6 20.55
L 6.45 20.55 19.6 30.8
Q 19.75 30.9 19.95 30.9 20.15 30.9 20.3 30.75 20.4 30.6 20.4 30.4
L 20.4 1.6 Z"/>
</g>
</defs>

<g transform="matrix( 1, 0, 0, 1, 0,0) ">
<use xlink:href="#Layer0_0_FILL"/>
</g>
</svg>
