
<svg xmlns="http://www.w3.org/2000/svg" version="1.1" xmlns:xlink="http://www.w3.org/1999/xlink" preserveAspectRatio="none" x="0px" y="0px" width="32px" height="32px" viewBox="0 0 32 32">
<defs>
<g id="Layer0_0_FILL">
<path fill="#FFFFFF" stroke="none" d="
M 11.65 3.45
Q 11.3607421875 3.153515625 10.95 3.15
L 8.1 3.15
Q 7.6892578125 3.153515625 7.4 3.45 7.103515625 3.7392578125 7.1 4.15
L 7.1 27.85
Q 7.103515625 28.2607421875 7.4 28.55 7.6892578125 28.846484375 8.1 28.85
L 10.95 28.85
Q 11.3607421875 28.846484375 11.65 28.55 11.946484375 28.2607421875 11.95 27.85
L 11.95 4.15
Q 11.946484375 3.7392578125 11.65 3.45
M 23.95 3.15
L 21.1 3.15
Q 20.6892578125 3.153515625 20.4 3.45 20.103515625 3.7392578125 20.1 4.15
L 20.1 27.85
Q 20.103515625 28.2607421875 20.4 28.55 20.6892578125 28.846484375 21.1 28.85
L 23.95 28.85
Q 24.3607421875 28.846484375 24.65 28.55 24.946484375 28.2607421875 24.95 27.85
L 24.95 4.15
Q 24.946484375 3.7392578125 24.65 3.45 24.3607421875 3.153515625 23.95 3.15 Z"/>
</g>
</defs>

<g transform="matrix( 1, 0, 0, 1, 0,0) ">
<use xlink:href="#Layer0_0_FILL"/>
</g>
</svg>
