
<svg xmlns="http://www.w3.org/2000/svg" version="1.1" xmlns:xlink="http://www.w3.org/1999/xlink" preserveAspectRatio="none" x="0px" y="0px" width="30px" height="30px" viewBox="0 0 30 30">
<defs>
<g id="Layer0_0_FILL">
<path fill="#FFFFFF" stroke="none" d="
M 20.5 7.2
L 20.5 7.15
Q 17.2181640625 3.95234375 12.6 3.95 8.0353515625 3.9486328125 4.75 7.15
L 4.7 7.15
Q 1.4984375 10.412109375 1.5 15.05 1.4984375 19.6876953125 4.7 22.9
L 4.75 22.9
Q 7.553515625 25.66171875 11.25 26.05 12.09609375 26.1798828125 12.75 25.65 13.38984375 25.1521484375 13.45 24.3 13.5806640625 23.502734375 13.05 22.85 12.5533203125 22.2109375 11.7 22.1 9.346484375 21.8380859375 7.55 20.05
L 7.55 20.05
Q 5.5013671875 18.012109375 5.5 15.05 5.5013671875 12.0876953125 7.55 10
L 7.55 10
Q 9.664453125 7.9513671875 12.6 7.95 15.5638671875 7.94765625 17.65 10
L 17.7 10
Q 18.9828125 11.35703125 19.4 13.05
L 16.5 13.05
Q 16.1134765625 13.04375 15.8 13.3 15.5365234375 13.564453125 15.5 13.95 15.4650390625 14.3359375 15.7 14.65
L 20.7 21.2
Q 20.894140625 21.451953125 21.2 21.55 21.5013671875 21.6458984375 21.8 21.55 22.103125 21.452734375 22.3 21.2
L 27.3 14.65
Q 27.535546875 14.3513671875 27.5 13.95 27.4642578125 13.5888671875 27.15 13.3 26.888671875 13.05546875 26.5 13.05
L 23.55 13.05
Q 22.9896484375 9.7091796875 20.5 7.2 Z"/>
</g>
</defs>

<g transform="matrix( 1, 0, 0, 1, 0,0) ">
<use xlink:href="#Layer0_0_FILL"/>
</g>
</svg>
