
<svg xmlns="http://www.w3.org/2000/svg" version="1.1" xmlns:xlink="http://www.w3.org/1999/xlink" preserveAspectRatio="none" x="0px" y="0px" width="32px" height="32px" viewBox="0 0 32 32">
<defs>
<g id="Layer0_0_FILL">
<path fill="#FFFFFF" stroke="none" d="
M 27 7.6
Q 26.4 6.85 25.75 6.2 24.95 5.4 24.15 4.8
L 21.5 6.2
Q 20.25 5.4 18.8 5.1
L 17.95 2.3
Q 17.05 2.2 16.05 2.2 14.9 2.2 13.85 2.35
L 13 5.1
Q 11.6 5.4 10.3 6.2
L 7.8 4.85
Q 6.95 5.4 6.2 6.2 5.45 6.95 4.85 7.8
L 6.2 10.25
Q 5.45 11.5 5.1 12.9
L 2.35 13.8
Q 2.2 14.9 2.2 16.05 2.2 17 2.3 17.9
L 5 18.75
Q 5.4 20.2 6.2 21.45
L 4.75 24.1
Q 5.4 24.9 6.2 25.75 6.85 26.4 7.55 26.95
L 10.2 25.6
Q 11.45 26.35 12.95 26.75
L 13.85 29.65
Q 14.9 29.85 16.05 29.85 16.95 29.85 17.8 29.7
L 18.7 26.8
Q 20.2 26.4 21.5 25.6
L 24.3 27.05
Q 25.05 26.45 25.75 25.75 26.45 25.05 27.05 24.3
L 25.6 21.55
Q 26.4 20.25 26.8 18.75
L 29.7 17.85
Q 29.85 17 29.85 16.05 29.85 14.95 29.7 13.95
L 26.8 13
Q 26.35 11.5 25.6 10.25
L 27 7.6
M 15.9 10.2
Q 18.2 10.2 19.85 11.85 21.5 13.5 21.5 15.9 21.5 18.2 19.85 19.85 18.2 21.5 15.9 21.5 13.5 21.5 11.85 19.85 10.2 18.2 10.2 15.9 10.2 13.5 11.85 11.85 13.5 10.2 15.9 10.2 Z"/>
</g>
</defs>

<g transform="matrix( 1, 0, 0, 1, 0,0) ">
<use xlink:href="#Layer0_0_FILL"/>
</g>
</svg>
